<?xml version="1.0" encoding="UTF-8"?>
<svg xmlns="http://www.w3.org/2000/svg" width="161" height="91" viewBox="0 0 161 91" fill="none">
  <g clip-path="url(#clip0_1635_806)">
    <path d="M79.1391 43.4787C79.0892 43.4006 79.0571 43.319 78.9966 43.2587C74.1867 38.3997 69.3767 33.5407 64.5668 28.6818C63.498 27.5992 62.4398 26.5061 61.3638 25.4342C61.1571 25.2283 61.1785 25.1218 61.3709 24.9337C62.6678 23.656 63.9576 22.3747 65.2367 21.0792C65.4398 20.8733 65.5466 20.8982 65.7355 21.0899C70.0109 25.3987 74.2935 29.704 78.5654 34.0128C78.8148 34.2612 78.9431 34.3429 79.2424 34.0412C82.2637 31.0314 85.3064 28.0429 88.3385 25.0438C92.8562 20.5752 97.3704 16.0996 101.885 11.6275C105.633 7.91847 109.384 4.20948 113.136 0.500479C113.802 -0.159687 113.802 -0.163236 114.479 0.468535C115.673 1.58656 116.859 2.71168 118.057 3.81906C118.263 4.01072 118.253 4.11365 118.057 4.30886C116.517 5.84569 114.996 7.40028 113.464 8.94067C109.406 13.0223 105.341 17.104 101.282 21.1857C98.4749 24.0074 95.6709 26.8326 92.8669 29.6578C90.0308 32.5114 87.1948 35.3651 84.3623 38.2222C82.7198 39.8762 81.0808 41.5373 79.4419 43.1912C79.3635 43.2729 79.278 43.3474 79.1391 43.4752V43.4787Z" fill="#F48220"></path>
    <path d="M79.3563 24.9657C79.2815 24.9018 79.2138 24.8521 79.1496 24.7953C77.696 23.4785 76.2494 22.1582 74.7887 20.8485C74.607 20.6852 74.6533 20.6036 74.7993 20.4616C78.1164 17.1856 81.4299 13.9061 84.7434 10.6301C85.7837 9.60083 86.8277 8.57508 87.868 7.54224C90.273 5.16423 92.6815 2.78621 95.0758 0.397543C95.318 0.156192 95.457 0.170389 95.685 0.386895C96.9926 1.62914 98.3073 2.86784 99.6291 4.09234C99.8465 4.2911 99.8108 4.40113 99.622 4.58924C96.9712 7.24765 94.3311 9.90961 91.6875 12.5716C87.6614 16.6248 83.6353 20.6781 79.6057 24.7314C79.5273 24.8095 79.4418 24.884 79.3527 24.9657H79.3563Z" fill="#F48220"></path>
    <path d="M65.0014 39.3934C64.923 39.4893 64.866 39.5745 64.7948 39.6419C63.5121 40.9303 62.2224 42.2151 60.9433 43.5071C60.7616 43.6881 60.6761 43.6455 60.5157 43.4787C58.182 41.1113 55.8377 38.751 53.5004 36.3907C50.0515 32.9054 46.6062 29.42 43.1609 25.9346C43.1395 25.9133 43.1217 25.8955 43.1003 25.8742C42.8319 25.595 42.8331 25.3194 43.1039 25.0472C44.3331 23.8227 45.5694 22.6053 46.7808 21.3702C47.0159 21.1324 47.1228 21.1679 47.3366 21.3844C51.0919 25.2247 54.8543 29.0544 58.6132 32.8876C60.644 34.9568 62.6784 37.019 64.7093 39.0847C64.8055 39.184 64.8981 39.287 64.9979 39.3934H65.0014Z" fill="#F48220"></path>
    <path d="M155.641 88.9308C155.527 89.0621 155.481 89.1082 155.445 89.1579C154.102 90.9681 152.214 91.2165 150.201 90.8367C148.206 90.457 147.122 89.0692 146.666 87.1703C146.335 85.7861 146.328 84.3877 146.72 83.007C147.333 80.8349 148.893 79.5678 151.156 79.4045C152.043 79.3406 152.916 79.4187 153.764 79.7204C155.196 80.2315 156.137 81.3211 156.45 82.8757C156.137 82.8757 155.834 82.8721 155.527 82.8757C155.392 82.8757 155.321 82.8296 155.289 82.6947C154.868 81.0265 153.008 79.9724 150.824 80.377C149.445 80.6326 148.498 81.4169 148.017 82.7089C147.422 84.3061 147.276 85.9458 147.931 87.5643C149.232 90.7835 153.172 90.6167 154.662 88.7533C155.267 87.9973 155.477 87.1206 155.545 86.1836C155.567 85.9032 155.42 85.8961 155.21 85.8961C154.17 85.9032 153.13 85.8784 152.093 85.9103C151.697 85.921 151.701 85.7329 151.704 85.4525C151.708 85.1827 151.679 84.9804 152.086 84.9875C153.464 85.0159 154.847 85.0053 156.229 84.9911C156.514 84.9911 156.582 85.0798 156.582 85.3495C156.571 87.0106 156.561 88.6681 156.586 90.3292C156.593 90.748 156.375 90.7019 156.112 90.6983C155.855 90.6983 155.595 90.7586 155.634 90.3327C155.673 89.9033 155.641 89.4667 155.641 88.9308Z" fill="white"></path>
    <path d="M48.3735 89.1757V88.7462C48.3735 85.9103 48.3735 83.0709 48.3735 80.235C48.3735 79.8541 48.5718 79.6636 48.9685 79.6636C49.0255 79.6636 49.0825 79.6707 49.1395 79.6636C49.4138 79.621 49.4708 79.7488 49.4708 80.0008C49.4637 83.4471 49.4637 86.897 49.4708 90.3434C49.4708 90.6131 49.3996 90.677 49.1217 90.7161C48.4412 90.8083 48.0635 90.5315 47.6894 89.9672C45.8046 87.1313 43.87 84.3309 41.9496 81.5163C41.889 81.4276 41.8534 81.314 41.6859 81.2501C41.6788 81.4134 41.6645 81.5589 41.6645 81.7044C41.6645 84.5403 41.6574 87.3797 41.6717 90.2156C41.6717 90.5954 41.5862 90.7693 41.1871 90.7019C41.0624 90.6806 40.9306 90.6912 40.8023 90.7019C40.6171 90.7161 40.5387 90.638 40.5529 90.457C40.5601 90.386 40.5529 90.315 40.5529 90.244C40.5529 86.8686 40.5601 83.4897 40.5422 80.1144C40.5422 79.7275 40.6562 79.6707 41.0161 79.6459C41.5755 79.6104 41.8997 79.7985 42.2168 80.2705C44.1443 83.1455 46.111 85.9955 48.0671 88.8491C48.1419 88.9592 48.1846 89.1011 48.3735 89.1757Z" fill="white"></path>
    <path d="M130.541 81.2359C130.541 81.3921 130.541 81.5447 130.541 81.7009C130.541 84.5403 130.534 87.3797 130.552 90.2192C130.552 90.606 130.459 90.7303 130.063 90.709C129.468 90.6735 129.468 90.7019 129.468 90.1269C129.468 86.7906 129.476 83.4542 129.458 80.1179C129.458 79.7381 129.558 79.6672 129.928 79.6459C130.491 79.6104 130.812 79.8091 131.125 80.2812C133.035 83.1348 134.987 85.9636 136.926 88.7995C137.011 88.9237 137.104 89.0444 137.25 89.2431C137.26 89.0124 137.271 88.8669 137.271 88.7178C137.271 85.85 137.282 82.9822 137.26 80.1144C137.26 79.7239 137.371 79.6388 137.738 79.6565C138.361 79.6849 138.361 79.6636 138.361 80.2954C138.361 83.6033 138.354 86.9112 138.369 90.2192C138.369 90.5883 138.301 90.7019 137.895 90.7267C137.314 90.7587 136.986 90.567 136.662 90.0843C134.802 87.2981 132.903 84.5368 131.018 81.7683C130.894 81.5838 130.762 81.4028 130.634 81.2217C130.605 81.2288 130.573 81.2395 130.544 81.2466L130.541 81.2359Z" fill="white"></path>
    <path d="M32.4722 85.1969C32.4722 86.787 32.1159 88.2742 30.9758 89.4561C29.4545 91.0319 27.5447 91.2769 25.5388 90.7516C23.5686 90.2369 22.5033 88.7994 22.065 86.8828C21.7657 85.5767 21.8049 84.267 22.2075 82.9786C22.9842 80.4835 25.1149 79.117 27.8868 79.4294C30.844 79.7665 32.2905 81.9848 32.4722 84.6468C32.4865 84.8314 32.4722 85.0159 32.4722 85.2005V85.1969ZM31.3784 85.1437C31.4069 84.6113 31.3321 84.0363 31.1932 83.4684C30.7478 81.6654 29.4117 80.4586 27.7122 80.3202C25.6386 80.1534 24.1351 80.9839 23.4296 82.755C22.7812 84.3771 22.7705 86.031 23.4296 87.6495C24.0887 89.268 25.3678 90.0452 27.0958 90.0736C28.7811 90.102 30.0744 89.417 30.8297 87.8766C31.243 87.0355 31.4034 86.1304 31.3749 85.1401L31.3784 85.1437Z" fill="white"></path>
    <path d="M61.5311 90.9716C60.2876 90.9645 59.1261 90.7196 58.2283 89.7684C57.6618 89.1721 57.4444 88.4374 57.3874 87.6388C57.3732 87.4542 57.448 87.4045 57.6297 87.3939C58.3637 87.3478 58.3565 87.3442 58.5561 88.0612C58.8126 88.9733 59.3827 89.6051 60.3054 89.8748C61.2995 90.1659 62.3007 90.1907 63.2733 89.7826C64.1391 89.4205 64.5702 88.732 64.588 87.8198C64.6059 86.9289 64.0857 86.3788 63.3018 86.0416C62.5002 85.6973 61.638 85.566 60.7971 85.3531C60.2591 85.2182 59.7318 85.0585 59.2223 84.8349C57.1844 83.9405 57.2093 81.2288 58.834 80.1214C60.1594 79.2164 62.5144 79.1276 63.879 79.9724C64.7484 80.5118 65.2151 81.2962 65.3256 82.3042C65.3576 82.5917 65.3006 82.7408 64.9764 82.6982C64.8232 82.6769 64.6629 82.6876 64.5061 82.6982C64.3422 82.7053 64.2852 82.6379 64.2781 82.4746C64.2353 81.2927 63.3517 80.5651 62.2793 80.3734C61.4955 80.235 60.7187 80.2634 59.9777 80.5828C59.0014 81.0052 58.5133 81.9635 58.7877 82.8934C58.9694 83.511 59.4325 83.8411 59.9884 84.0753C60.8328 84.4267 61.7449 84.5296 62.6249 84.7603C63.0239 84.8633 63.423 84.9662 63.8078 85.1153C65.0797 85.6122 65.664 86.4356 65.6712 87.7275C65.6783 89.0337 65.1011 89.9884 63.9004 90.535C63.1486 90.8793 62.3506 90.9893 61.5275 90.9751L61.5311 90.9716Z" fill="white"></path>
    <path d="M14.2123 87.0567C13.9379 89.0976 12.4095 90.6131 10.2183 90.9113C7.79551 91.2414 5.8573 90.4215 4.91669 88.118C4.70292 87.5891 4.57109 87.039 4.49627 86.4747C4.34663 85.2963 4.36088 84.125 4.66729 82.9751C5.26942 80.7106 6.93329 79.4506 9.35606 79.3903C10.7527 79.3548 12.0496 79.6033 13.0722 80.6538C13.6137 81.2111 13.913 81.889 14.0769 82.6379C14.0911 82.7053 14.109 82.7941 14.0769 82.8402C13.9664 82.9964 12.9866 82.8473 12.9368 82.6663C12.413 80.739 10.9522 80.2492 9.32755 80.3025C7.62093 80.3593 6.46655 81.1898 5.89292 82.8047C5.32642 84.409 5.34068 86.0381 5.90361 87.6353C6.47724 89.2573 7.74563 90.0878 9.51282 90.0807C11.1126 90.0736 12.3489 89.2218 12.9011 87.6495C13.0722 87.1668 13.2788 86.9538 13.7847 87.0532C13.9201 87.0816 14.0662 87.0567 14.2087 87.0567H14.2123Z" fill="white"></path>
    <path d="M73.6593 83.5891C73.6593 82.4108 73.67 81.2324 73.6522 80.0576C73.6487 79.7417 73.727 79.6423 74.0513 79.653C74.7353 79.6743 74.7353 79.653 74.7353 80.3202C74.7425 82.5456 74.7531 84.7746 74.7674 87C74.7674 87.3691 74.8529 87.7347 74.9562 88.0861C75.2591 89.1118 75.9218 89.7649 76.9906 89.9743C77.7531 90.1233 78.5191 90.1233 79.2745 89.9388C80.3184 89.6868 80.9205 88.9911 81.1877 87.976C81.3516 87.3514 81.3766 86.716 81.3766 86.0772C81.3766 84.0896 81.3873 82.1055 81.3659 80.1179C81.3623 79.7452 81.4514 79.5891 81.8326 79.6565C81.9003 79.6672 81.9751 79.6672 82.0464 79.6565C82.3706 79.6068 82.4775 79.7169 82.4739 80.0647C82.4561 81.7967 82.4739 83.5252 82.4632 85.2573C82.4597 85.992 82.5024 86.7302 82.4027 87.4649C82.1105 89.5945 80.835 90.8048 78.6688 90.9539C77.8279 91.0107 76.9906 90.9787 76.1819 90.7054C74.689 90.205 73.7769 88.9414 73.6736 87.2023C73.67 87.1313 73.6629 87.0603 73.6629 86.9893C73.6629 85.8536 73.6629 84.7213 73.6629 83.5856L73.6593 83.5891Z" fill="white"></path>
    <path d="M106.915 85.6051C106.915 84.0434 106.908 82.4817 106.922 80.92C106.922 80.6396 106.844 80.5651 106.566 80.5687C105.597 80.5864 104.628 80.5545 103.662 80.5864C103.267 80.6006 103.303 80.3876 103.313 80.1427C103.324 79.9085 103.213 79.6458 103.659 79.6494C106.196 79.6707 108.729 79.6671 111.266 79.6494C111.679 79.6494 111.597 79.8872 111.597 80.1179C111.597 80.3379 111.693 80.6006 111.273 80.5864C110.432 80.558 109.591 80.5793 108.754 80.5793C108.257 80.5793 108.009 80.8337 108.009 81.3424C108.009 84.3096 108.002 87.2768 108.02 90.244C108.02 90.6202 107.931 90.7302 107.549 90.7125C106.919 90.6806 106.919 90.7054 106.919 90.0807C106.919 88.59 106.919 87.0993 106.919 85.6086L106.915 85.6051Z" fill="white"></path>
    <path d="M91.0177 85.1792C91.0177 83.4755 91.0249 81.7718 91.0106 80.0682C91.0106 79.7771 91.0391 79.6387 91.3918 79.6494C92.1044 79.6742 92.108 79.6494 92.108 80.3734C92.108 83.3264 92.1151 86.2794 92.0973 89.2324C92.0973 89.6548 92.1721 89.8039 92.6388 89.7932C94.3633 89.7613 96.0842 89.7932 97.8086 89.7684C98.2005 89.7613 98.2005 89.9387 98.1969 90.2156C98.1934 90.496 98.2361 90.7125 97.8015 90.7054C95.6637 90.6805 93.5296 90.6876 91.3918 90.7018C91.0961 90.7018 91.007 90.6308 91.0106 90.3292C91.0249 88.6113 91.0177 86.8935 91.0177 85.1756V85.1792Z" fill="white"></path>
    <path d="M120.583 85.2218C120.583 86.9254 120.575 88.6255 120.59 90.3292C120.59 90.6309 120.508 90.7125 120.209 90.7054C119.475 90.6912 119.475 90.7054 119.475 89.9671C119.475 86.6912 119.482 83.4116 119.464 80.1356C119.464 79.7452 119.567 79.5961 119.952 79.66C120.034 79.6742 120.123 79.6742 120.209 79.66C120.511 79.6139 120.586 79.7346 120.586 80.0327C120.572 81.7648 120.579 83.4933 120.579 85.2253L120.583 85.2218Z" fill="white"></path>
    <path d="M150.995 57.8249C150.995 57.974 150.995 58.123 150.995 58.2721C150.995 61.8924 150.995 65.5091 150.995 69.1294C150.995 69.7398 151.07 69.6582 150.44 69.6617C149.713 69.6653 148.986 69.6404 148.263 69.6724C147.892 69.6866 147.824 69.5588 147.824 69.2181C147.835 64.3201 147.832 59.4256 147.832 54.5276C147.832 54.0733 147.842 53.619 147.828 53.1647C147.821 52.9375 147.899 52.8772 148.12 52.8772C149.132 52.8878 150.144 52.8914 151.152 52.8772C151.416 52.8736 151.491 53.0263 151.587 53.2002C153.539 56.7672 155.495 60.3378 157.448 63.9048C157.548 64.0858 157.651 64.2633 157.833 64.4195V64.0184C157.833 60.4975 157.833 56.9802 157.833 53.4593C157.833 53.0783 158.031 52.8878 158.428 52.8878C159.14 52.8878 159.853 52.9091 160.562 52.8807C160.925 52.8666 161.004 52.9837 161.004 53.3315C160.993 58.2437 160.996 63.1524 160.996 68.0646C160.996 68.5047 160.986 68.9448 161 69.3849C161.007 69.6121 160.925 69.6759 160.704 69.6759C159.749 69.6653 158.795 69.6617 157.843 69.6759C157.573 69.6795 157.516 69.502 157.423 69.3352C155.859 66.4922 154.291 63.6493 152.727 60.8027C152.178 59.8054 151.626 58.808 151.077 57.8071C151.052 57.8142 151.028 57.8213 150.999 57.8284L150.995 57.8249Z" fill="white"></path>
    <path d="M141.269 61.0938C141.276 62.698 141.105 64.0858 140.595 65.4168C139.776 67.5677 138.269 69.0087 136.067 69.7079C134.182 70.3042 132.308 70.2474 130.466 69.534C128.478 68.7673 127.103 67.3583 126.419 65.3636C125.471 62.5916 125.446 59.777 126.486 57.0298C127.544 54.2295 129.736 52.8275 132.65 52.4832C134.303 52.288 135.889 52.5826 137.357 53.367C139.591 54.5631 140.677 56.5436 141.094 58.9571C141.226 59.7273 141.297 60.5046 141.272 61.0973L141.269 61.0938ZM137.877 61.3813C137.87 60.0858 137.745 58.9323 137.235 57.8604C136.509 56.3271 135.301 55.454 133.584 55.4291C131.891 55.4043 130.651 56.1922 129.867 57.69C129.397 58.588 129.219 59.5605 129.162 60.5578C129.08 62.0024 129.176 63.4292 129.821 64.7531C130.573 66.3041 131.834 67.1311 133.562 67.1098C135.29 67.0885 136.512 66.2118 137.243 64.6572C137.749 63.5818 137.863 62.4283 137.873 61.3813H137.877Z" fill="white"></path>
    <path d="M19.8418 61.2464C19.8418 58.5915 19.8454 55.9366 19.8347 53.2818C19.8347 52.9695 19.9024 52.8736 20.2302 52.8772C23.9463 52.8878 27.666 52.8878 31.3821 52.8772C31.6849 52.8772 31.7668 52.9659 31.7597 53.2605C31.7419 53.9987 31.7383 54.737 31.7597 55.4752C31.7704 55.7982 31.6671 55.8763 31.35 55.8728C28.7847 55.8586 26.223 55.8728 23.6577 55.8586C23.28 55.8586 23.1446 55.9367 23.1625 56.3413C23.1981 57.2215 23.1874 58.1017 23.1625 58.9819C23.1553 59.3014 23.2408 59.383 23.5615 59.383C25.913 59.3688 28.261 59.383 30.6125 59.3688C30.9296 59.3688 31.0578 59.422 31.0436 59.777C31.0115 60.5152 31.0186 61.2535 31.0436 61.9917C31.0543 62.2934 30.9616 62.3679 30.6659 62.3644C28.3144 62.3502 25.9665 62.3644 23.6149 62.3502C23.2693 62.3502 23.1553 62.4212 23.1625 62.7868C23.1874 63.9509 23.1874 65.1151 23.1625 66.2793C23.1553 66.6306 23.2729 66.6981 23.5971 66.6981C26.2907 66.6874 28.9807 66.6981 31.6742 66.6839C32.0162 66.6839 32.1445 66.7513 32.1303 67.1204C32.0982 67.8587 32.1124 68.5969 32.1267 69.3352C32.1303 69.5836 32.0733 69.683 31.7989 69.6795C27.926 69.6724 24.0496 69.6688 20.1768 69.6795C19.8169 69.6795 19.8383 69.502 19.8383 69.2606C19.8418 66.5916 19.8383 63.9225 19.8383 61.2535L19.8418 61.2464Z" fill="white"></path>
    <path d="M1.6675 64.4833C2.1093 64.4833 2.5511 64.4833 2.99289 64.4833C3.11047 64.4833 3.21736 64.4443 3.2708 64.6431C3.78386 66.5064 4.35748 66.9962 6.27076 67.1737C7.09735 67.2482 7.92038 67.163 8.70777 66.8684C9.04625 66.7442 9.3491 66.5597 9.58425 66.2828C10.3645 65.3742 10.108 64.0929 9.02487 63.5712C8.07002 63.1098 7.01896 62.9536 6.00354 62.691C5.095 62.4567 4.17934 62.2615 3.29218 61.9562C0.855159 61.1151 6.50736e-05 59.3972 0.3136 56.8879C0.605757 54.5347 2.06298 53.0937 4.43943 52.6323C6.34914 52.2632 8.24104 52.2845 10.0082 53.2215C11.7006 54.123 12.5414 55.5959 12.7445 57.47C12.7766 57.761 12.7125 57.8675 12.3918 57.8604C11.5225 57.8391 10.6531 57.8497 9.78733 57.8533C9.61987 57.8533 9.50586 57.8533 9.47023 57.6261C9.26715 56.288 8.41562 55.6101 7.12585 55.4149C6.28501 55.2872 5.45129 55.3049 4.64608 55.6279C4.12589 55.8408 3.7126 56.1745 3.51664 56.7211C3.16391 57.7042 3.60928 58.627 4.63895 58.9323C5.7292 59.2552 6.83726 59.5072 7.93463 59.7947C8.88236 60.0432 9.84434 60.2384 10.7457 60.643C12.5058 61.4381 13.3324 62.7584 13.2683 64.6856C13.1792 67.4008 11.8716 69.0761 9.22796 69.7753C7.07241 70.3432 4.92755 70.2509 2.89313 69.3033C0.997675 68.4301 0.139018 66.8259 6.50708e-05 64.7886C-0.0177494 64.5401 0.0570713 64.4691 0.299348 64.4798C0.755398 64.4975 1.21145 64.4833 1.6675 64.4833Z" fill="white"></path>
    <path d="M56.6464 61.2464C56.6464 58.5915 56.65 55.9367 56.6393 53.2854C56.6393 52.9801 56.6963 52.8772 57.0312 52.8772C60.7331 52.8914 64.4349 52.8914 68.1403 52.8772C68.4717 52.8772 68.5429 52.9766 68.5358 53.2854C68.5144 54.0236 68.5144 54.7619 68.5358 55.5001C68.5465 55.8089 68.4396 55.8763 68.1474 55.8728C65.5715 55.8621 62.9919 55.8728 60.416 55.8586C60.0561 55.8586 59.9635 55.9509 59.9742 56.3023C60.0027 57.1967 59.9991 58.0911 59.9742 58.9855C59.967 59.3085 60.0561 59.383 60.3732 59.383C62.7212 59.3688 65.0727 59.383 67.4242 59.3688C67.7448 59.3688 67.8695 59.4292 67.8553 59.7805C67.8268 60.5188 67.8303 61.257 67.8553 61.9953C67.866 62.3041 67.7591 62.368 67.4705 62.3644C65.1225 62.3538 62.771 62.3644 60.4195 62.3502C60.0668 62.3502 59.967 62.4283 59.9742 62.7868C59.9991 63.9651 59.9955 65.1435 59.9742 66.3219C59.9706 66.6271 60.0704 66.6945 60.359 66.6945C63.0632 66.6839 65.771 66.6945 68.4752 66.6803C68.7995 66.6803 68.917 66.7478 68.9028 67.0921C68.8743 67.8161 68.8743 68.5402 68.9028 69.2642C68.917 69.6192 68.7852 69.6759 68.4681 69.6759C64.6665 69.6653 60.8649 69.6653 57.0597 69.6759C56.7248 69.6759 56.6357 69.5872 56.6357 69.2536C56.65 66.5845 56.6429 63.9155 56.6429 61.25L56.6464 61.2464Z" fill="white"></path>
    <path d="M107.895 58.3644C107.453 58.3644 107.011 58.3466 106.57 58.3715C106.292 58.3857 106.181 58.2898 106.106 58.0201C105.818 56.9731 105.262 56.1141 104.186 55.7415C102.422 55.1274 100.559 55.5817 99.5436 57.3528C98.7669 58.7087 98.6421 60.1994 98.6778 61.7149C98.7027 62.8258 98.8915 63.9119 99.3832 64.927C100.235 66.6839 101.988 67.4541 103.833 66.872C105.112 66.4674 105.796 65.5162 106.114 64.281C106.203 63.9368 106.338 63.8729 106.655 63.88C107.539 63.9013 108.419 63.8942 109.302 63.88C109.52 63.88 109.612 63.9226 109.559 64.1604C108.932 67.1347 107.179 69.5091 103.933 70.0025C99.793 70.6307 96.6576 68.6076 95.6101 64.5685C94.9047 61.8391 94.9902 59.1097 96.1552 56.4939C97.3844 53.7326 100.142 52.1886 103.167 52.4335C104.834 52.5684 106.349 53.0369 107.589 54.194C108.707 55.2375 109.359 56.533 109.573 58.0485C109.605 58.2863 109.562 58.375 109.302 58.3679C108.832 58.3502 108.362 58.3608 107.891 58.3608L107.895 58.3644Z" fill="white"></path>
    <path d="M87.6436 58.3644C87.1733 58.3644 86.703 58.3573 86.2326 58.3644C86.0331 58.3679 85.9405 58.3147 85.8728 58.1088C85.26 56.2454 84.3657 55.5604 82.4738 55.4753C81.0059 55.4078 79.595 56.3413 78.9929 57.9527C78.1413 60.2277 78.1235 62.549 79.0748 64.7957C80.051 67.1062 82.88 67.7948 84.7077 66.2402C85.3384 65.7043 85.6875 64.9944 85.8728 64.21C85.9334 63.9509 86.0367 63.8729 86.2968 63.8799C87.2089 63.8977 88.1174 63.8941 89.0295 63.8799C89.2861 63.8764 89.3466 63.9509 89.2932 64.1923C88.3989 68.3804 85.4666 70.5136 81.3871 70.0415C78.0522 69.6546 75.9858 67.6457 75.234 64.132C74.696 61.6155 74.7851 59.1097 75.7969 56.6998C77.019 53.8 79.7909 52.1851 82.9334 52.4406C84.6044 52.5755 86.1115 53.0546 87.3478 54.2153C88.4416 55.241 89.0758 56.5152 89.3074 57.9917C89.3537 58.2934 89.2718 58.3892 88.9654 58.3715C88.5272 58.3466 88.0818 58.3644 87.6436 58.3644Z" fill="white"></path>
    <path d="M38.8853 61.2606C38.8853 58.6057 38.8924 55.9509 38.8782 53.2996C38.8782 52.973 38.953 52.8666 39.295 52.8772C40.1644 52.902 41.0337 52.902 41.8995 52.8772C42.2273 52.8666 42.2985 52.9695 42.2985 53.2818C42.2879 57.5694 42.2985 61.8533 42.2807 66.1409C42.2807 66.5384 42.3912 66.6236 42.7724 66.62C45.1524 66.6023 47.5289 66.62 49.9089 66.6023C50.2331 66.6023 50.3186 66.6839 50.3079 67.0033C50.283 67.77 50.2937 68.5366 50.3079 69.3033C50.3115 69.5659 50.2581 69.6724 49.9588 69.6724C46.3852 69.6618 42.808 69.6582 39.2345 69.6724C38.8889 69.6724 38.8889 69.5198 38.8889 69.2642C38.896 66.5952 38.8924 63.9261 38.8924 61.2606H38.8853Z" fill="white"></path>
    <path d="M115.897 61.289C115.897 58.6199 115.901 55.9544 115.89 53.2853C115.89 52.9765 115.954 52.8665 116.286 52.8772C117.183 52.902 118.081 52.8949 118.976 52.8772C119.239 52.8736 119.307 52.9446 119.307 53.2072C119.3 58.5844 119.3 63.9651 119.307 69.3423C119.307 69.6191 119.214 69.6688 118.965 69.6653C118.081 69.6511 117.198 69.644 116.318 69.6653C115.983 69.6724 115.89 69.5836 115.89 69.2429C115.904 66.588 115.897 63.9367 115.897 61.2819V61.289Z" fill="white"></path>
    <path d="M137.802 47.7911C136.708 48.9233 135.682 49.9845 134.656 51.0422C134.578 51.1239 134.506 51.2126 134.375 51.2126C133.669 51.2126 132.964 51.2126 132.187 51.2126C132.892 50.0733 133.566 48.9943 134.232 47.9118C134.296 47.8088 134.378 47.7946 134.482 47.7946C135.558 47.7946 136.633 47.7946 137.806 47.7946L137.802 47.7911Z" fill="white"></path>
  </g>
  <defs>
    <clipPath id="clip0_1635_806">
      <rect width="161" height="91" fill="white"></rect>
    </clipPath>
  </defs>
</svg>
